<?xml version="1.0" encoding="UTF-8" standalone="no"?>
<!-- Created with Inkscape (http://www.inkscape.org/) -->

<svg
   xmlns:dc="http://purl.org/dc/elements/1.1/"
   xmlns:cc="http://creativecommons.org/ns#"
   xmlns:rdf="http://www.w3.org/1999/02/22-rdf-syntax-ns#"
   xmlns:svg="http://www.w3.org/2000/svg"
   xmlns="http://www.w3.org/2000/svg"
   xmlns:sodipodi="http://sodipodi.sourceforge.net/DTD/sodipodi-0.dtd"
   xmlns:inkscape="http://www.inkscape.org/namespaces/inkscape"
   width="437.09167mm"
   height="389.46667mm"
   viewBox="0 0 437.09167 389.46667"
   version="1.1"
   id="svg8"
   inkscape:version="0.92.4 (5da689c313, 2019-01-14)"
   sodipodi:docname="Taieri-dark.svg">
  <defs
     id="defs2" />
  <sodipodi:namedview
     id="base"
     pagecolor="#ffffff"
     bordercolor="#666666"
     borderopacity="1.0"
     inkscape:pageopacity="0.0"
     inkscape:pageshadow="2"
     inkscape:zoom="0.25"
     inkscape:cx="594.53594"
     inkscape:cy="833.78443"
     inkscape:document-units="mm"
     inkscape:current-layer="layer1"
     showgrid="false"
     borderlayer="false"
     showborder="false"
     inkscape:snap-smooth-nodes="true"
     inkscape:object-paths="true"
     fit-margin-top="0"
     fit-margin-left="0"
     fit-margin-right="0"
     fit-margin-bottom="0"
     inkscape:window-width="1366"
     inkscape:window-height="713"
     inkscape:window-x="-8"
     inkscape:window-y="-8"
     inkscape:window-maximized="1" />
  <metadata
     id="metadata5">
    <rdf:RDF>
      <cc:Work
         rdf:about="">
        <dc:format>image/svg+xml</dc:format>
        <dc:type
           rdf:resource="http://purl.org/dc/dcmitype/StillImage" />
        <dc:title></dc:title>
      </cc:Work>
    </rdf:RDF>
  </metadata>
  <g
     inkscape:label="Layer 1"
     inkscape:groupmode="layer"
     id="layer1"
     transform="translate(239.18333,41.666668)">
    <g
       id="g1346">
      <rect
         ry="0"
         y="-41.666668"
         x="-239.18333"
         height="389.46667"
         width="437.09167"
         id="rect1297"
         style="opacity:0.98299997;fill:#221c24;fill-opacity:1;stroke:none;stroke-width:1.32291663;stroke-linecap:round;stroke-linejoin:round;stroke-miterlimit:4;stroke-dasharray:none;stroke-dashoffset:0;stroke-opacity:1" />
      <g
         transform="matrix(0.26458333,0,0,0.26458333,-232.58099,-33.729162)"
         id="Shape"
         style="fill:none;fill-rule:evenodd;stroke:none;stroke-width:13;stroke-linecap:round;stroke-linejoin:round">
        <path
           style="stroke:#44ab96"
           inkscape:connector-curvature="0"
           d="m 1600,999 c 0,32.0329 -25.7432,58 -57.5,58 -31.7568,0 -57.5,-25.9671 -57.5,-58"
           id="path1010" />
        <path
           style="stroke:#e53855"
           inkscape:connector-curvature="0"
           d="m 1600,155 c -39.768,0 -72,-32.45946 -72,-72.5 0,-40.040663 32.232,-72.5 72,-72.5"
           id="path1012" />
        <path
           style="stroke:#44ab96"
           inkscape:connector-curvature="0"
           d="M 562,68.906103 C 562,102.09476 588.86303,129 622,129 c 33.13697,0 60,-26.90524 60,-60.093897 V 1"
           id="path1014" />
        <path
           style="stroke:#ffb017"
           inkscape:connector-curvature="0"
           d="M 137.23543,1412 C 62.546955,1412 2,1351.7872 2,1277.5 2,1203.2128 62.546955,1143 137.23543,1143 H 261"
           id="path1016" />
        <path
           style="stroke:#44ab96"
           inkscape:connector-curvature="0"
           d="M 128.98039,1320 C 104.13784,1320 84,1300.5263 84,1276.5 84,1252.4737 104.13784,1233 128.98039,1233 H 177"
           id="path1018" />
        <path
           style="stroke:#da774a"
           inkscape:connector-curvature="0"
           d="M 1600,462 V 293.68094 C 1600,260.71969 1573.132,234 1540,234 c -33.132,0 -60,26.71969 -60,59.68094 v 26.05304"
           id="path1020" />
        <path
           style="stroke:#da774a"
           inkscape:connector-curvature="0"
           d="M 673,965.53612 H 493.56294 c -45.22808,0 -81.89348,36.47138 -81.89348,81.46008 0,44.9887 36.6654,81.4601 81.89348,81.4601 h 74.05941 M 366.84006,1412 H 356.14334 C 324.5844,1412 299,1386.3821 299,1354.796 c 0,-31.5982 25.5844,-57.216 57.14334,-57.216 h 127.57947 c 46.6305,0 84.432,-37.8432 84.432,-84.5306 M 389.76151,588 v 64.28545 c 0,78.30396 63.40476,141.78077 141.61864,141.78077 h 56.40646 c 47.0618,0 85.21339,38.19494 85.21339,85.31021"
           id="path1022" />
        <circle
           style="stroke:#44ab96"
           cx="588"
           cy="393"
           r="40"
           id="circle1024" />
        <ellipse
           style="stroke:#e53855"
           cx="698"
           cy="1195.5"
           rx="58"
           ry="57.5"
           id="ellipse1026" />
        <circle
           style="stroke:#44ab96"
           cx="184"
           cy="257"
           r="63"
           id="circle1028" />
        <path
           style="stroke:#ffb017"
           inkscape:connector-curvature="0"
           d="M 184.5,394 C 262.09546,394 325,331.99157 325,255.5 325,179.00843 262.09546,117 184.5,117 106.90454,117 44,179.00843 44,255.5"
           id="path1030" />
        <path
           style="stroke:#44ab96"
           inkscape:connector-curvature="0"
           d="m 1311.2103,1224.4574 c -21.346,79.8144 24.8315,161.5555 103.1362,182.5809 78.3046,21.0133 159.0972,-26.649 180.4432,-106.4634 21.346,-79.8144 -24.8315,-161.552 -103.1362,-182.5749"
           id="path1032" />
        <path
           style="stroke:#da774a"
           inkscape:connector-curvature="0"
           d="M 481.8303,1213 C 396.873,1213 328,1137.5653 328,1044.5119 c 0,-32.3114 8.30434,-62.49895 22.70313,-88.14153 M 587,875 H 482.20258 c -33.5329,0 -64.56325,11.60145 -89.845,31.2963"
           id="path1034" />
        <path
           style="stroke:#44ab96"
           inkscape:connector-curvature="0"
           d="m 328.5,414 c -31.75677,0 -57.5,25.74305 -57.5,57.5 0,31.75695 25.74323,57.5 57.5,57.5 31.75677,0 57.5,-25.74305 57.5,-57.5 V 414"
           id="path1036" />
        <path
           style="stroke:#e53855"
           inkscape:connector-curvature="0"
           d="m 346,77.5 c 0,42.24952 34.02646,76.5 76,76.5 41.97354,0 76,-34.25048 76,-76.5 C 498,35.250245 463.97354,1 422,1 h -76"
           id="path1038" />
        <path
           style="stroke:#44ab96"
           inkscape:connector-curvature="0"
           d="M 71.5,866.5824 C 34.773068,866.5824 5,837.1272 5,800.7912 5,764.4552 34.773068,735 71.5,735 c 36.72717,0 66.5,29.4552 66.5,65.7912 V 1002"
           id="path1040" />
        <path
           style="stroke:#44ab96"
           inkscape:connector-curvature="0"
           d="m 1461.9882,870 c 0,33.68891 26.8716,61 60.0119,61 33.1404,0 59.9999,-27.31109 59.9999,-61 0,-33.68891 -26.8595,-61 -59.9999,-61 H 1321"
           id="path1042" />
        <path
           style="stroke:#4484ab"
           inkscape:connector-curvature="0"
           d="m 966,139.79082 c -35.34611,0 -64,28.25257 -64,63.10459 C 902,237.74743 930.65389,266 966,266 c 35.3461,0 64,-28.25257 64,-63.10459 V 0"
           id="path1044" />
        <path
           style="stroke:#44ab96"
           inkscape:connector-curvature="0"
           d="m 914.9187,1354 c 0,-32.0329 25.76246,-58 57.54065,-58 31.77935,0 57.54065,25.9671 57.54065,58 0,32.0329 -25.7613,58 -57.54065,58 H 881"
           id="path1046" />
        <path
           style="stroke:#da774a"
           inkscape:connector-curvature="0"
           d="m 1089.5,562.57778 c 31.7568,0 57.5,25.61371 57.5,57.21111 C 1147,651.38628 1121.2568,677 1089.5,677 1057.7432,677 1032,651.38628 1032,619.78889 V 406"
           id="path1048" />
        <path
           style="stroke:#da774a"
           inkscape:connector-curvature="0"
           d="M 62.5,568.70807 C 30.743589,568.70807 5,594.06877 5,625.35404 5,656.6393 30.743589,682 62.5,682 94.256411,682 120,656.6393 120,625.35404 V 394"
           id="path1050" />
        <path
           style="stroke:#ffb017"
           inkscape:connector-curvature="0"
           d="m 688.70393,394 c 0,-56.88491 -45.37727,-103 -101.35196,-103 C 531.37727,291 486,337.11509 486,394 c 0,56.88491 45.37727,103 101.35197,103 H 853"
           id="path1052" />
        <path
           style="stroke:#44ab96"
           inkscape:connector-curvature="0"
           d="M 1498.6432,727 C 1554.6287,727 1600,680.88491 1600,624 1600,567.11509 1554.6287,521 1498.6432,521 H 1233"
           id="path1054" />
        <path
           style="stroke:#da774a"
           inkscape:connector-curvature="0"
           d="m 1107,175.5 c 0,-53.29576 42.7393,-96.5 95.4615,-96.5 h 98.077 C 1353.2646,79 1396,122.20424 1396,175.5 v 0 c 0,53.29576 -42.7354,96.5 -95.4615,96.5 h -98.077 C 1149.7393,272 1107,228.79576 1107,175.5 Z"
           id="path1056" />
        <path
           style="stroke:#ffb017"
           inkscape:connector-curvature="0"
           d="M 266.5,871 C 233.63917,871 207,844.4056 207,811.6 V 642.4 c 0,-32.8056 26.63917,-59.4 59.5,-59.4 v 0 c 32.86083,0 59.5,26.5944 59.5,59.4 v 169.2 c 0,32.8056 -26.63917,59.4 -59.5,59.4 z"
           id="path1058" />
        <path
           style="stroke:#e53855"
           inkscape:connector-curvature="0"
           d="M 828,795.5 V 706.16593 C 828,680.66915 848.81871,660 874.5,660 v 0 c 25.68129,0 46.5,20.66915 46.5,46.16593 V 884.83407 C 921,910.33085 900.18129,931 874.5,931 v 0 0 C 848.81871,931 828,910.33085 828,884.83407 V 863.25"
           id="path1060" />
        <path
           style="stroke:#ffb017"
           inkscape:connector-curvature="0"
           d="m 914,317.93047 v 7.78846 C 914,370.05685 877.95883,406 833.5,406 v 0 C 789.04117,406 753,370.05685 753,325.71893 V 81.281065 C 753,36.943031 789.04117,1 833.5,1 V 1 C 877.95883,1 914,36.943031 914,81.281065 v 2.39645"
           id="path1062" />
        <path
           style="stroke:#ffb017"
           inkscape:connector-curvature="0"
           d="M 71.75,952 H 66.939189 C 32.731197,952 5,979.75794 5,1014 v 0 c 0,34.2421 27.731077,62 61.939189,62 H 210.06081 C 244.26928,1076 272,1048.2421 272,1014 v 0 c 0,-34.24206 -27.73072,-62 -61.93919,-62 H 205.25"
           id="path1064" />
        <path
           style="stroke:#44ab96"
           inkscape:connector-curvature="0"
           d="M 751,660 V 891.6367 C 751,960.87313 807.63586,1017 877.5,1017 947.36414,1017 1004,960.87313 1004,891.6367 v -54.72763"
           id="path1066" />
        <path
           style="stroke:#44ab96"
           inkscape:connector-curvature="0"
           d="M 497,1052 H 704.80158 C 783.88799,1052 848,1116.4712 848,1196 c 0,79.524 -64.11201,144 -143.19842,144 h -62.51394"
           id="path1068" />
        <path
           style="stroke:#4484ab"
           inkscape:connector-curvature="0"
           d="M 586,701 H 536.81345 C 503.77926,701 477,674.1368 477,641 c 0,-33.1368 26.77926,-60 59.81345,-60 h 98.3731 C 668.22074,581 695,607.8632 695,641 v 5.3304 C 695,676.5236 670.59957,701 640.5,701"
           id="path1070" />
        <path
           style="stroke:#44ab96"
           inkscape:connector-curvature="0"
           d="m 1089.5,472 h 56.1814 C 1183.4103,472 1214,443.12192 1214,407.5 1214,371.87808 1183.4103,343 1145.6814,343 H 1033.3186 C 995.5873,343 965,371.87808 965,407.5"
           id="path1072" />
        <path
           style="stroke:#44ab96"
           inkscape:connector-curvature="0"
           d="M 675,203 H 540.31882 C 455.09075,203 386,272.39554 386,358"
           id="path1074" />
        <path
           style="stroke:#e53855"
           inkscape:connector-curvature="0"
           d="m 1449.5,1206.8403 c 31.7568,0 57.5,25.5598 57.5,57.0799 0,31.5201 -25.7432,57.0798 -57.5,57.0798 -31.7568,0 -57.5,-25.5597 -57.5,-57.0798 V 892"
           id="path1076" />
        <path
           style="stroke:#44ab96"
           inkscape:connector-curvature="0"
           d="m 1019,1244 c 0,-58.5409 46.8466,-106 104.6347,-106 H 1308"
           id="path1078" />
        <path
           style="stroke:#4484ab"
           inkscape:connector-curvature="0"
           d="m 747,581 h 98.3731 C 911.44147,581 965,527.2736 965,461"
           id="path1080" />
        <path
           style="stroke:#4484ab"
           inkscape:connector-curvature="0"
           d="m 1321,894 v 53.75513 C 1321,1002.0137 1276.9983,1046 1222.7123,1046 H 1146"
           id="path1082" />
        <path
           style="stroke:#da774a"
           inkscape:connector-curvature="0"
           d="m 1507,626 h -84.0068 C 1362.2425,626 1313,675.69663 1313,737"
           id="path1084" />
        <path
           style="stroke:#44ab96"
           inkscape:connector-curvature="0"
           d="m 218,1412 v -91.1179 c 0,-52.4636 40.9752,-96.4125 96,-107.8821"
           id="path1086" />
        <path
           style="stroke:#44ab96"
           inkscape:connector-curvature="0"
           d="m 44.5,326 c 0,9.31305 0,126.5475 0,184"
           id="path1088" />
        <path
           style="stroke:#44ab96"
           inkscape:connector-curvature="0"
           d="m 1088.5,749 c 0,7.69289 0,104.5386 0,152"
           id="path1090" />
        <path
           style="stroke:#44ab96"
           inkscape:connector-curvature="0"
           d="m 934.5,1162 c 0,3.1382 0,42.6369 0,62"
           id="path1092" />
        <path
           style="stroke:#ffb017"
           inkscape:connector-curvature="0"
           d="m 1233,587 v 142.3306 c 0,22.39509 -18.2953,40.53561 -40.8648,40.53561 -22.5694,0 -40.8647,18.15493 -40.8647,40.55122 v 8.41063 c 0,22.39509 18.2953,40.55122 40.8647,40.55122 22.5695,0 40.8648,18.15494 40.8648,40.55123 v 9.31176 c 0,27.53879 -22.4968,49.86299 -50.2485,49.86299 h -26.0324 -38.1404 M 954,1092 h 26.77607 c 55.33073,0 100.18463,-44.7989 100.18463,-100.06192"
           id="path1094" />
        <path
           style="stroke:#e53855"
           inkscape:connector-curvature="0"
           d="m 1481,389.9208 v 20.2824 C 1481,438.81 1457.7366,462 1429.0574,462 v 0 c -28.6911,0 -51.9545,-23.19 -51.9545,-51.7968 v -16.8 c 0,-28.3896 -23.083,-51.4032 -51.5455,-51.4032 v 0 C 1297.0829,342 1274,365.0136 1274,393.4032 v 20.676"
           id="path1096" />
        <path
           style="stroke:#4484ab"
           inkscape:connector-curvature="0"
           d="m 1089,1285.9667 c 0,-40.2945 32.6835,-72.9667 73,-72.9667 v 0 c 40.3129,0 73,32.6722 73,72.9667 v 53.0666 c 0,40.2945 -32.6871,72.9667 -73,72.9667 v 0 c -40.3165,0 -73,-32.6722 -73,-72.9667 z"
           id="path1098" />
      </g>
    </g>
  </g>
</svg>
